<svg width="37" height="74" viewBox="0 0 37 74" fill="none" xmlns="http://www.w3.org/2000/svg">
<rect width="37" height="74" rx="2" transform="matrix(-1 0 0 1 37 0)" fill="white"/>
<path d="M4 7C4 5.89543 4.89543 5 6 5H31C32.1046 5 33 5.89543 33 7C33 8.10457 32.1046 9 31 9H6C4.89543 9 4 8.10457 4 7Z" fill="#171771"/>
<path d="M4 16C4 14.8954 4.89543 14 6 14H31C32.1046 14 33 14.8954 33 16V16C33 17.1046 32.1046 18 31 18H6C4.89543 18 4 17.1046 4 16V16Z" fill="#171771"/>
<path d="M4 39C4 37.8954 4.89543 37 6 37C7.10457 37 8 37.8954 8 39V45C8 46.1046 7.10457 47 6 47C4.89543 47 4 46.1046 4 45V39Z" fill="#171771"/>
</svg>
